# xmcd
#
# Track frame offsets:
#	150
#	14381
#	31785
#	35862
#	55365
#	61923
#	81181
#	94962
#	108199
#	119497
#	139191
#	157566
#	171197
#	186681
#	197862
#	213493
#	229665
#	241645
#	261031
#	273118
#	283435
#	297254
#	311503
#
# Disc length: 4378 seconds
#
# Revision: 0
# Processed by: cddbd v1.5.2PL0 Copyright (c) Steve Scherf et al.
# Submitted via: EasyCDDAExtractor 10.2.0.1
#
DISCID=50111817
DTITLE=Various Artist - Crossroads May 2004
DYEAR=2004
DGENRE=Gospel
TTITLE0=Doyle Lawson - The Mighty Number
TTITLE1=Poet Voices - There's No Such Thing
TTITLE2=Lauren Talley - Intro/His Life For Mine
TTITLE3=Talley Trio - His Life For Mine
TTITLE4=Lauren Talley - Intro/His Life For Mine
TTITLE5=Talley Trio - His Life For Mine (live)
TTITLE6=Tim and Mary Alice Lovelace - Gone Fishing
TTITLE7=Jake Hess - Gotta Get A God Said
TTITLE8=Palmetto State  - Knock, Knock, Knock
TTITLE9=Calvary Construction Co. - You Had Your Hand On Me
TTITLE10=Lauren Talley - Almighty
TTITLE11=Reggie Sadler Family - Anytime, Anyplace, Anywhere
TTITLE12=Three Bridges - Cooling Water
TTITLE13=Mended Wings - Fathers Righteous Hand
TTITLE14=Gospel Enforcers - Praise The Lord
TTITLE15=3 For 1 - Matter Of Time
TTITLE16=Carolina Boys - I'm Ready To Go
TTITLE17=Mark Bishop - Can I Pray For You
TTITLE18=Jody Brown Indian Family - Ain't Gonna Run
TTITLE19=Amy Lambert - Jesus Gives Love To Me
TTITLE20=McKameys - God Is So Good To Me
TTITLE21=Inspiration - I Will Praise Him
TTITLE22=Down East Boys - When The Master Walks By
EXTD=
EXTT0=
EXTT1=
EXTT2=
EXTT3=
EXTT4=
EXTT5=
EXTT6=
EXTT7=
EXTT8=
EXTT9=
EXTT10=
EXTT11=
EXTT12=
EXTT13=
EXTT14=
EXTT15=
EXTT16=
EXTT17=
EXTT18=
EXTT19=
EXTT20=
EXTT21=
EXTT22=
PLAYORDER=
